#!OML:ASF C:\Vicon Data\Big\jianyuan-12\jianyuan\Session 1\Capture.male.ASF
:FULLY-SPECIFIED
:DEGREES
237
root -12.621662 16.686429 -7.429405 1.080199 -30.655888 12.033322
lowerback -8.446969 -3.148740 -10.638701 
upperback 2.296647 -2.858696 -1.713964 
thorax 7.678134 -1.825355 3.698461 
lowerneck -1.690365 -5.567879 -6.840735 
upperneck 7.760959 -7.640735 6.652279 
head 3.445277 -3.774452 3.152696 
rclavicle 0.000000 0.000000 
rhumerus -45.981657 -33.673811 -70.724555 
rradius 33.336385 
rwrist 40.836698 
rhand -21.707741 -4.221574 
rfingers 0.000000 
rthumb 4.690992 -34.149631 
lclavicle 0.000000 0.000000 
lhumerus -14.687737 16.341374 85.942564 
lradius 39.294482 
lwrist -34.983833 
lhand -11.396755 3.519224 
lfingers 0.000000 
lthumb 14.638259 32.982525 
rfemur -32.969767 2.757484 7.048612 
rtibia 14.487740 
rfoot -16.177515 -10.250829 
rtoes -21.422289 
lfemur 1.650448 -2.736559 -33.445015 
ltibia 12.249991 
lfoot -25.593396 5.913650 
ltoes -15.831860 
238
root -12.652937 16.676989 -7.376752 1.045099 -30.672578 12.096775
lowerback -8.547154 -3.149950 -10.646128 
upperback 2.322189 -2.842200 -1.736434 
thorax 7.760882 -1.820972 3.675789 
lowerneck -1.667864 -5.582924 -6.815452 
upperneck 7.726064 -7.662527 6.660485 
head 3.429622 -3.784746 3.150286 
rclavicle 0.000000 0.000000 
rhumerus -46.054373 -33.784011 -70.641930 
rradius 33.326976 
rwrist 40.745545 
rhand -21.585391 -4.172504 
rfingers 0.000000 
rthumb 4.809151 -34.097882 
lclavicle 0.000000 0.000000 
lhumerus -14.577836 16.095908 85.989705 
lradius 39.366693 
lwrist -34.792209 
lhand -11.413387 3.595162 
lfingers 0.000000 
lthumb 14.622224 33.059648 
rfemur -32.889464 3.068540 6.797129 
rtibia 13.983757 
rfoot -16.402484 -10.337346 
rtoes -21.703272 
lfemur 2.073104 -2.702758 -33.515708 
ltibia 11.881726 
lfoot -25.542457 5.917547 
ltoes -15.862905 
239
root -12.684144 16.666985 -7.325685 1.037226 -30.666201 12.135657
lowerback -8.599989 -3.142957 -10.646473 
upperback 2.321111 -2.823784 -1.760346 
thorax 7.786272 -1.812126 3.651188 
lowerneck -1.653531 -5.614876 -6.715716 
upperneck 7.702898 -7.706852 6.625272 
head 3.414645 -3.805073 3.117409 
rclavicle 0.000000 0.000000 
rhumerus -46.209580 -33.956539 -70.509139 
rradius 33.332782 
rwrist 40.694842 
rhand -21.581830 -4.124628 
rfingers 0.000000 
rthumb 4.812560 -34.049957 
lclavicle 0.000000 0.000000 
lhumerus -14.500570 15.820189 86.022627 
lradius 39.430309 
lwrist -34.658251 
lhand -11.451209 3.650439 
lfingers 0.000000 
lthumb 14.585764 33.117573 
rfemur -32.849372 3.437215 6.538462 
rtibia 13.614182 
rfoot -16.806239 -10.481628 
rtoes -21.803848 
lfemur 2.462632 -2.655776 -33.552339 
ltibia 11.534986 
lfoot -25.458179 5.887161 
ltoes -15.920249 
240
root -12.715231 16.656491 -7.276400 0.986304 -30.618174 12.173788
lowerback -8.550332 -3.165378 -10.673554 
upperback 2.322640 -2.857567 -1.754266 
thorax 7.766417 -1.829264 3.669013 
lowerneck -1.661304 -5.626195 -6.714232 
upperneck 7.657425 -7.720147 6.626228 
head 3.401322 -3.811687 3.116668 
rclavicle 0.000000 0.000000 
rhumerus -46.310308 -34.034223 -70.397720 
rradius 33.328483 
rwrist 40.725410 
rhand -21.670267 -4.141714 
rfingers 0.000000 
rthumb 4.727147 -34.068990 
lclavicle 0.000000 0.000000 
lhumerus -14.455245 15.713117 86.045427 
lradius 39.490900 
lwrist -34.690095 
lhand -11.474917 3.645479 
lfingers 0.000000 
lthumb 14.562940 33.114262 
rfemur -32.767557 3.736962 6.317740 
rtibia 13.334106 
rfoot -17.230953 -10.660321 
rtoes -21.638972 
lfemur 2.870905 -2.601450 -33.579022 
ltibia 11.228620 
lfoot -25.353183 5.827322 
ltoes -16.032038 
241
root -12.745924 16.645860 -7.226516 0.900308 -30.546484 12.265735
lowerback -8.521861 -3.231955 -10.754923 
upperback 2.345596 -2.941424 -1.723494 
thorax 7.794769 -1.876634 3.732730 
lowerneck -1.642792 -5.608363 -6.852242 
upperneck 7.545727 -7.691677 6.685104 
head 3.367908 -3.800862 3.165083 
rclavicle 0.000000 0.000000 
rhumerus -46.278952 -33.953634 -70.362687 
rradius 33.307338 
rwrist 40.729216 
rhand -21.685566 -4.224404 
rfingers 0.000000 
rthumb 4.712394 -34.151984 
lclavicle 0.000000 0.000000 
lhumerus -14.379293 15.862122 86.105911 
lradius 39.519837 
lwrist -34.866920 
lhand -11.486407 3.614834 
lfingers 0.000000 
lthumb 14.551916 33.084433 
rfemur -32.673637 3.864147 6.126740 
rtibia 13.103525 
rfoot -17.538626 -10.840350 
rtoes -21.732423 
lfemur 3.268827 -2.574370 -33.660368 
ltibia 10.970454 
lfoot -25.260982 5.770679 
ltoes -16.213779 
242
root -12.778340 16.637619 -7.175875 0.861140 -30.483576 12.374421
lowerback -8.588043 -3.259175 -10.865457 
upperback 2.333313 -2.955561 -1.733802 
thorax 7.828687 -1.888894 3.777539 
lowerneck -1.623973 -5.619246 -6.831319 
upperneck 7.574510 -7.709743 6.691669 
head 3.374989 -3.809135 3.162995 
rclavicle 0.000000 0.000000 
rhumerus -46.417922 -34.032015 -70.253185 
rradius 33.330981 
rwrist 40.553817 
rhand -21.678501 -4.268335 
rfingers 0.000000 
rthumb 4.719179 -34.195763 
lclavicle 0.000000 0.000000 
lhumerus -14.308598 15.800127 86.169835 
lradius 39.510891 
lwrist -34.932638 
lhand -11.427487 3.501171 
lfingers 0.000000 
lthumb 14.608659 32.966653 
rfemur -32.652294 3.713633 6.071354 
rtibia 12.943669 
rfoot -17.703398 -10.998534 
rtoes -22.499348 
lfemur 3.592347 -2.499009 -33.742235 
ltibia 10.767465 
lfoot -25.174981 5.642183 
ltoes -16.395213 
243
root -12.810521 16.626346 -7.127256 0.776267 -30.450592 12.397171
lowerback -8.528072 -3.287189 -10.871475 
upperback 2.367863 -2.998978 -1.720943 
thorax 7.839639 -1.912442 3.788533 
lowerneck -1.716909 -5.614685 -6.879144 
upperneck 7.582486 -7.700673 6.736433 
head 3.400063 -3.803150 3.185856 
rclavicle 0.000000 0.000000 
rhumerus -46.397324 -34.182473 -70.123833 
rradius 33.201545 
rwrist 40.706648 
rhand -21.610520 -4.210279 
rfingers 0.000000 
rthumb 4.784812 -34.136258 
lclavicle 0.000000 0.000000 
lhumerus -14.346064 15.620171 86.182380 
lradius 39.684235 
lwrist -34.724794 
lhand -11.394344 3.572721 
lfingers 0.000000 
lthumb 14.640531 33.035906 
rfemur -32.534895 3.931105 5.939875 
rtibia 12.811605 
rfoot -18.144260 -11.334712 
rtoes -22.134605 
lfemur 3.957666 -2.407514 -33.740709 
ltibia 10.656423 
lfoot -25.137006 5.532726 
ltoes -16.583137 
244
root -12.840615 16.615486 -7.079666 0.729251 -30.411152 12.483193
lowerback -8.546475 -3.284634 -10.932915 
upperback 2.375314 -2.982845 -1.747894 
thorax 7.858648 -1.907426 3.795141 
lowerneck -1.726070 -5.648551 -6.772635 
upperneck 7.576791 -7.743927 6.657840 
head 3.392629 -3.823643 3.135979 
rclavicle 0.000000 0.000000 
rhumerus -46.554660 -34.381306 -69.949360 
rradius 33.218219 
rwrist 40.851886 
rhand -21.604984 -4.164743 
rfingers 0.000000 
rthumb 4.790164 -34.090625 
lclavicle 0.000000 0.000000 
lhumerus -14.283600 15.417731 86.219828 
lradius 39.696139 
lwrist -34.512491 
lhand -11.547849 3.753823 
lfingers 0.000000 
lthumb 14.492672 33.227681 
rfemur -32.491440 4.028549 5.804397 
rtibia 12.750786 
rfoot -18.382105 -11.619839 
rtoes -21.822203 
lfemur 4.214655 -2.404444 -33.817706 
ltibia 10.587134 
lfoot -25.135729 5.525732 
ltoes -16.864311 
245
root -12.873594 16.604823 -7.031004 0.728446 -30.385515 12.497922
lowerback -8.594354 -3.301125 -10.944633 
upperback 2.371243 -2.998266 -1.734679 
thorax 7.885888 -1.916800 3.810923 
lowerneck -1.672960 -5.666800 -6.747804 
upperneck 7.524633 -7.766816 6.613940 
head 3.362233 -3.836707 3.116174 
rclavicle 0.000000 0.000000 
rhumerus -46.668862 -34.503697 -69.760012 
rradius 33.149449 
rwrist 41.029317 
rhand -21.592332 -4.120546 
rfingers 0.000000 
rthumb 4.802397 -34.046110 
lclavicle 0.000000 0.000000 
lhumerus -14.261573 15.368311 86.233143 
lradius 39.702150 
lwrist -34.703697 
lhand -11.537465 3.721333 
lfingers 0.000000 
lthumb 14.502709 33.194496 
rfemur -32.446805 4.036427 5.791343 
rtibia 12.701209 
rfoot -18.576776 -11.854572 
rtoes -21.859798 
lfemur 4.422318 -2.322394 -33.809277 
ltibia 10.593198 
lfoot -25.137946 5.480727 
ltoes -17.272551 
246
root -12.907845 16.595044 -6.980967 0.709324 -30.356880 12.460481
lowerback -8.608669 -3.320619 -10.903037 
upperback 2.394249 -3.028033 -1.705877 
thorax 7.922816 -1.932690 3.812007 
lowerneck -1.627406 -5.669569 -6.807554 
upperneck 7.423883 -7.769868 6.657314 
head 3.324762 -3.839944 3.143630 
rclavicle 0.000000 0.000000 
rhumerus -46.688234 -34.542386 -69.670084 
rradius 33.069148 
rwrist 41.025154 
rhand -21.610950 -4.067453 
rfingers 0.000000 
rthumb 4.784416 -33.993422 
lclavicle 0.000000 0.000000 
lhumerus -14.248918 15.294536 86.255252 
lradius 39.740878 
lwrist -34.821262 
lhand -11.464048 3.650780 
lfingers 0.000000 
lthumb 14.573438 33.118829 
rfemur -32.359901 3.793989 5.973910 
rtibia 12.705778 
rfoot -18.521595 -11.938006 
rtoes -22.398177 
lfemur 4.662768 -2.216956 -33.745609 
ltibia 10.642607 
lfoot -25.167550 5.398783 
ltoes -17.608003 
